<svg xmlns="http://www.w3.org/2000/svg" viewBox="0 0 64 64">
  <rect width="64" height="64" rx="14" fill="#16324a"/>
  <g fill="#c4a574">
    <ellipse cx="22" cy="46" rx="6" ry="3" transform="rotate(-50 22 46)"/>
    <ellipse cx="18" cy="38" rx="6.2" ry="3" transform="rotate(-28 18 38)"/>
    <ellipse cx="17" cy="29" rx="6.2" ry="3" transform="rotate(-6 17 29)"/>
    <ellipse cx="20" cy="21" rx="6" ry="3" transform="rotate(18 20 21)"/>
    <ellipse cx="26" cy="15" rx="5.6" ry="2.8" transform="rotate(46 26 15)"/>
    <ellipse cx="42" cy="46" rx="6" ry="3" transform="rotate(50 42 46)"/>
    <ellipse cx="46" cy="38" rx="6.2" ry="3" transform="rotate(28 46 38)"/>
    <ellipse cx="47" cy="29" rx="6.2" ry="3" transform="rotate(6 47 29)"/>
    <ellipse cx="44" cy="21" rx="6" ry="3" transform="rotate(-18 44 21)"/>
    <ellipse cx="38" cy="15" rx="5.6" ry="2.8" transform="rotate(-46 38 15)"/>
    <ellipse cx="32" cy="50" rx="4.2" ry="2.4"/>
    <circle cx="32" cy="12" r="2.6"/>
  </g>
</svg>
