<svg xmlns="http://www.w3.org/2000/svg" viewBox="0 0 160 200">
  <path fill="#c4a574" d="M80 8l62 22v58c0 42-28 70-62 84C46 158 18 130 18 88V30z"/>
  <path fill="#1a5c6e" d="M80 18l52 18v50c0 36-23.5 60-52 72-28.5-12-52-36-52-72V36z"/>
  <path fill="#c4a574" d="M28 36h104v24L80 68 28 60z"/>
  <rect x="62" y="42" width="36" height="18" rx="1.5" fill="#f6f1e6"/>
  <path stroke="#8a6a3a" stroke-width="1.6" d="M80 43v16M64 51h32"/>
  <g fill="#f6f1e6">
    <ellipse cx="86" cy="92" rx="28" ry="9"/>
    <polygon points="54,92 34,83 34,101"/>
    <ellipse cx="86" cy="116" rx="28" ry="9"/>
    <polygon points="54,116 34,107 34,125"/>
    <ellipse cx="86" cy="140" rx="28" ry="9"/>
    <polygon points="54,140 34,131 34,149"/>
  </g>
  <rect x="18" y="172" width="124" height="22" rx="11" fill="#16324a"/>
  <text x="80" y="187" text-anchor="middle" fill="#c4a574" font-size="11" font-family="Georgia, serif" letter-spacing="1.6">SAPERE AUDE</text>
</svg>
